<?xml version="1.0" encoding="UTF-8"?>
<!-- Created with Inkscape (http://www.inkscape.org/) -->
<svg width="14.601mm" height="8.3186mm" version="1.1" viewBox="0 0 14.601 8.3186" xmlns="http://www.w3.org/2000/svg">
 <g transform="translate(-107.1 -139.41)">
  <g transform="matrix(1 0 0 1 103.29 132.19)" stroke-width=".26458" aria-label="CR">
   <path d="m6.196 15.193q-0.6096 0-1.1303-0.2032-0.5207-0.1905-0.8509-0.6096t-0.3937-1.0795q-0.0508-0.5715 0.1778-1.2319 0.2413-0.6731 0.6858-1.3462 0.4572-0.6731 1.0414-1.2827t1.2319-1.0922q0.6604-0.4826 1.3081-0.762t1.2192-0.2794q0.4572 0 0.8128 0.2921t0.3556 0.7874q0 0.3937-0.254 0.6604-0.254 0.254-0.6477 0.254-0.0127 0-0.127-0.0127t-0.127-0.0889q0.0635-0.1524 0.2286-0.2667 0.1778-0.1143 0.3175-0.3048 0.1397-0.2032 0.1016-0.5969-0.0127-0.2286-0.1905-0.3175-0.1651-0.1016-0.381-0.1016-0.5334 0-1.1303 0.3048-0.5969 0.2921-1.1811 0.8128-0.5715 0.508-1.0922 1.143-0.508 0.635-0.9017 1.3208-0.381 0.6858-0.5842 1.3462-0.2032 0.6477-0.1524 1.1684 0.0635 0.5715 0.508 0.8509 0.4572 0.2794 0.9779 0.2794 0.5969 0 1.2446-0.1905 0.6477-0.2032 1.27-0.508 0.635-0.3048 1.1811-0.635t0.9398-0.6096q0.4064-0.2794 0.5842-0.4191 0.0127-0.0127 0.0254-0.0127 0.0254 0 0.0254 0.0635 0 0.0508-0.0254 0.1143-0.0127 0.0635-0.0762 0.127-0.4064 0.4191-1.0033 0.8509-0.5842 0.4191-1.27 0.7747t-1.397 0.5715q-0.6985 0.2286-1.3208 0.2286z"/>
   <path d="m16.47 15.13q-0.2286 0-0.4191-0.1016-0.1778-0.0889-0.3429-0.2413-0.2286-0.2159-0.508-0.5715t-0.5842-0.762q-0.2921-0.4191-0.5588-0.8128-0.254-0.4064-0.4318-0.7112-0.0889 0-0.2032-0.0127t-0.2159-0.0381q-0.1905-0.0635-0.1905-0.127 0-0.0508 0.0762-0.0762t0.1651-0.0381q0.4191-0.0635 1.016-0.1778 0.5969-0.127 1.2192-0.3302 0.635-0.2159 1.1811-0.4953 0.5588-0.2921 0.9017-0.6731 0.3429-0.3937 0.3429-0.889 0-0.3937-0.2286-0.6604t-0.5969-0.4318q-0.3556-0.1778-0.7747-0.2667t-0.8128-0.1143q-0.381-0.0381-0.6477-0.0381-0.6604 0-1.4478 0.1524t-1.5494 0.3937-1.3462 0.5334q-0.0127 0.0127-0.0508 0.0254-0.0254 0.0127-0.0508 0.0127-0.0762 0-0.0762-0.1016 0-0.254 0.2794-0.4445 0.2794-0.2032 0.7239-0.3556 0.4572-0.1524 0.9779-0.254 0.5207-0.1143 1.016-0.1778 0.508-0.0635 0.889-0.0889 0.3937-0.0381 0.5588-0.0381 0.3556 0 0.8255 0.0508 0.4699 0.0381 0.9525 0.1651 0.4953 0.1143 0.9144 0.3429t0.6731 0.5842q0.2667 0.3429 0.2667 0.8636 0 0.635-0.381 1.1049t-0.9906 0.7874q-0.5969 0.3175-1.2954 0.508-0.6858 0.1778-1.2954 0.254 0.1397 0.3556 0.381 0.8509 0.254 0.4953 0.5588 0.9652t0.6096 0.7874q0.3175 0.3048 0.5588 0.3048 0.2159 0 0.3302-0.1524 0.127-0.1651 0.1778-0.4064t0.0635-0.4699q0.0127-0.2413 0.0127-0.3937v-0.0762q0-0.1143 0.0635-0.1143 0.1143 0 0.2032 0.1397t0.1397 0.3048 0.0508 0.254q0.0254 0.3175-0.127 0.6096-0.1524 0.2794-0.4191 0.4572-0.2667 0.1905-0.5842 0.1905zm-4.9276 0.4064q-0.2794 0-0.3937-0.2032-0.1143-0.1905-0.1143-0.4699 0-0.4191 0.1905-1.016 0.1905-0.6096 0.4826-1.2827 0.3048-0.6858 0.6477-1.3462t0.6477-1.2192q0.3175-0.5588 0.5207-0.9017 0.1524-0.2667 0.3175-0.5715 0.1651-0.3175 0.3556-0.5588 0.0635-0.0889 0.2159-0.1143t0.2413-0.0254q0.1016 0 0.2286 0.0508 0.127 0.0381 0.127 0.1778v0.0254q0 0.1651-0.1397 0.3302-0.5715 0.9271-1.143 1.778-0.5588 0.8509-1.0541 1.8288-0.1143 0.2032-0.3175 0.5842-0.2032 0.3683-0.4318 0.8128-0.2159 0.4445-0.3556 0.8763-0.1397 0.4191-0.1143 0.7366 0 0.0635 0.0254 0.1397 0.0381 0.0762 0.127 0.0762 0.0635 0 0.0635 0.1143 0 0.0635-0.0381 0.1143-0.0254 0.0635-0.0889 0.0635z"/>
  </g>
 </g>
</svg>
